<?xml version="1.0" encoding="UTF-8"?><svg id="a" xmlns="http://www.w3.org/2000/svg" xmlns:xlink="http://www.w3.org/1999/xlink" viewBox="0 0 64 64"><defs><linearGradient id="c" x1="1027.2353" y1="789.9517" x2="996.8428" y2="772.4046" gradientTransform="translate(830.4984 -975.0393) rotate(90)" gradientUnits="userSpaceOnUse"><stop offset=".2829" stop-color="#5f57bf"/><stop offset=".3957" stop-color="#5c55ba"/><stop offset=".5138" stop-color="#554fae"/><stop offset=".6345" stop-color="#4a4699"/><stop offset=".7568" stop-color="#3a3a7b"/><stop offset=".8792" stop-color="#262a56"/><stop offset="1" stop-color="#0f172a"/></linearGradient><linearGradient id="d" x1="1017.2353" y1="824.5923" x2="986.8428" y2="807.0452" gradientTransform="translate(830.4984 -975.0393) rotate(90)" gradientUnits="userSpaceOnUse"><stop offset="0" stop-color="#0f172a"/><stop offset=".13" stop-color="#2f202a"/><stop offset=".3407" stop-color="#5c2e2b"/><stop offset=".5281" stop-color="#7e382c"/><stop offset=".6834" stop-color="#923e2c"/><stop offset=".7873" stop-color="#9a412d"/></linearGradient><linearGradient id="e" x1="14.4531" y1="16.9998" x2="49.5469" y2="16.9998" gradientUnits="userSpaceOnUse"><stop offset=".2702" stop-color="#96402d"/><stop offset=".447" stop-color="#a8452d"/><stop offset=".8021" stop-color="#d8542e"/><stop offset="1" stop-color="#f65e2f"/></linearGradient><linearGradient id="f" x1="1007.2367" y1="842.2394" x2="976.8443" y2="824.6923" gradientTransform="translate(-784.1456 1029.0398) rotate(-90)" xlink:href="#d"/><linearGradient id="g" x1="-3.194" y1="7.0012" x2="31.8997" y2="7.0012" gradientTransform="translate(46.3529 54.0005) rotate(-180)" xlink:href="#e"/></defs><g id="b"><rect width="64" height="64" style="fill:#0f172a;"/></g><path d="M43.541,53.0007c-1.0176,0-2.0488-.2588-2.9941-.8047-2.8701-1.6572-3.8525-5.3262-2.1963-8.1963l11.5469-20c1.6572-2.8687,5.3242-3.853,8.1963-2.1963,2.8701,1.6567,3.8525,5.3267,2.1963,8.1963l-11.5469,20c-1.1113,1.9248-3.1279,3.001-5.2021,3.001Z" style="fill:url(#c);"/><path d="M8.9004,43.0007c-1.0176,0-2.0488-.2588-2.9941-.8047-2.8701-1.6572-3.8525-5.3262-2.1963-8.1963L15.2568,13.9998c1.6562-2.8682,5.3252-3.8525,8.1963-2.1963,2.8701,1.6567,3.8525,5.3267,2.1963,8.1963l-11.5469,20c-1.1113,1.9248-3.1279,3.001-5.2021,3.001Z" style="fill:url(#d);"/><path d="M43.5469,22.9998h-23.0938c-3.3135,0-6-2.6865-6-6s2.6865-6,6-6h23.0938c3.3135,0,6,2.6865,6,6s-2.6865,6-6,6Z" style="fill:url(#e);"/><circle cx="43.5471" cy="16.9998" r="6" style="fill:#f65e2f;"/><path d="M55.0996,20.9983c1.0176,0,2.0488.2588,2.9941.8047,2.8701,1.6572,3.8525,5.3262,2.1963,8.1963l-11.5469,20c-1.6562,2.8682-5.3252,3.8525-8.1963,2.1963-2.8701-1.6567-3.8525-5.3267-2.1963-8.1963l11.5469-20c1.1113-1.9248,3.1279-3.001,5.2021-3.001Z" style="fill:url(#f);"/><path d="M20.4531,40.9993h23.0938c3.3135,0,6,2.6865,6,6s-2.6865,6-6,6h-23.0938c-3.3135,0-6-2.6865-6-6s2.6865-6,6-6Z" style="fill:url(#g);"/><circle cx="20.4529" cy="46.9992" r="6" style="fill:#f65e2f;"/></svg>