<?xml version="1.0" encoding="UTF-8"?><svg xmlns="http://www.w3.org/2000/svg" xmlns:xlink="http://www.w3.org/1999/xlink" viewBox="0 0 64 64"><defs><linearGradient id="d" x1="7.5" y1="19.6" x2="56.5" y2="19.6" gradientUnits="userSpaceOnUse"><stop offset="0" stop-color="#333"/><stop offset="1" stop-color="#e6e6e6"/></linearGradient><linearGradient id="e" x1="7.5" y1="44.4" x2="56.5" y2="44.4" gradientUnits="userSpaceOnUse"><stop offset="0" stop-color="#e6e6e6"/><stop offset="1" stop-color="#333"/></linearGradient><mask id="c" x="7.5" y="12.6" width="49" height="38.79" maskUnits="userSpaceOnUse"><path d="M49.5,26.6H14.5c-3.87,0-7-3.13-7-7s3.13-7,7-7h35c3.87,0,7,3.13,7,7s-3.13,7-7,7Z" fill="url(#d)"/><path d="M49.5,51.4H14.5c-3.87,0-7-3.13-7-7s3.13-7,7-7h35c3.87,0,7,3.13,7,7s-3.13,7-7,7Z" fill="url(#e)"/></mask></defs><g id="a"><rect y="0" width="64" height="64" fill="#0f172a"/></g><g id="b"><g mask="url(#c)"><path d="M49.5,25.6H14.5c-3.31,0-6-2.69-6-6s2.69-6,6-6h35c3.31,0,6,2.69,6,6s-2.69,6-6,6ZM55.5,44.4c0-3.31-2.69-6-6-6H14.5c-3.31,0-6,2.69-6,6s2.69,6,6,6h35c3.31,0,6-2.69,6-6Z" fill="#2ab7a8"/></g><circle cx="14.5" cy="44.4" r="6" fill="#2ab7a8"/><circle cx="49.5" cy="19.6" r="6" fill="#2ab7a8"/></g></svg>