<?xml version="1.0" encoding="UTF-8"?><svg id="Ebene_1" xmlns="http://www.w3.org/2000/svg" xmlns:xlink="http://www.w3.org/1999/xlink" viewBox="0 0 64 64"><defs><linearGradient id="Unbenannter_Verlauf_56" x1="29" y1="37.1963" x2="46.25" y2="7.3184" gradientUnits="userSpaceOnUse"><stop offset=".22" stop-color="#f65e2f"/><stop offset="1" stop-color="#0f172a"/></linearGradient><linearGradient id="Unbenannter_Verlauf_59" x1="29" y1="26.8037" x2="46.25" y2="56.6816" gradientUnits="userSpaceOnUse"><stop offset=".06" stop-color="#f65e2f"/><stop offset=".1791" stop-color="#f15c2e"/><stop offset=".3027" stop-color="#e5582e"/><stop offset=".4282" stop-color="#d0522e"/><stop offset=".5552" stop-color="#b3492d"/><stop offset=".6834" stop-color="#8e3e2c"/><stop offset=".8125" stop-color="#602f2b"/><stop offset=".9399" stop-color="#2a1f2a"/><stop offset="1" stop-color="#0f172a"/></linearGradient><linearGradient id="Unbenannter_Verlauf_53" x1="3.5" y1="32" x2="38" y2="32" gradientUnits="userSpaceOnUse"><stop offset="0" stop-color="#0f172a"/><stop offset=".74" stop-color="#f65e2f"/></linearGradient></defs><rect y="0" width="64" height="64" style="fill:#0f172a;"/><path d="M31.9941,38.001c-1.0176,0-2.0488-.2588-2.9941-.8047-2.8701-1.6572-3.8525-5.3267-2.1963-8.1963l11.25-19.4854c1.6572-2.8691,5.3252-3.8521,8.1963-2.1963,2.8701,1.6572,3.8525,5.3267,2.1963,8.1963l-11.25,19.4854c-1.1113,1.9248-3.1279,3.001-5.2021,3.001Z" style="fill:url(#Unbenannter_Verlauf_56);"/><path d="M43.2559,57.4863c-2.0742,0-4.0908-1.0762-5.2021-3.001l-11.25-19.4854c-1.6562-2.8696-.6738-6.5391,2.1963-8.1963s6.54-.6729,8.1963,2.1963l11.25,19.4854c1.6562,2.8701.6738,6.5391-2.1963,8.1963-.9443.5449-1.9766.8047-2.9941.8047Z" style="fill:url(#Unbenannter_Verlauf_59);"/><path d="M32,38H9.5c-3.3135,0-6-2.6865-6-6s2.6865-6,6-6h22.5c3.3135,0,6,2.6865,6,6s-2.6865,6-6,6Z" style="fill:url(#Unbenannter_Verlauf_53);"/><circle cx="32" cy="32" r="6" style="fill:#f65e2f;"/></svg>