<?xml version="1.0" encoding="UTF-8"?><svg xmlns="http://www.w3.org/2000/svg" xmlns:xlink="http://www.w3.org/1999/xlink" viewBox="0 0 64 64"><defs><linearGradient id="Unbenannter_Verlauf_103" x1="52" y1="49.5469" x2="52" y2="14.4531" gradientUnits="userSpaceOnUse"><stop offset=".3" stop-color="#313268"/><stop offset=".8" stop-color="#22264f"/></linearGradient><linearGradient id="Unbenannter_Verlauf_94" x1="26.8038" y1="58.0939" x2="52" y2="43.5468" gradientUnits="userSpaceOnUse"><stop offset=".3" stop-color="#3d3c81"/><stop offset="1" stop-color="#313268"/></linearGradient><linearGradient id="Unbenannter_Verlauf_87" x1="6.8038" y1="40.5468" x2="32" y2="55.0938" gradientUnits="userSpaceOnUse"><stop offset=".3" stop-color="#4c489c"/><stop offset=".8" stop-color="#3d3c81"/></linearGradient><linearGradient id="Unbenannter_Verlauf_86" x1="12" y1="43.5469" x2="12" y2="14.4531" gradientUnits="userSpaceOnUse"><stop offset=".2" stop-color="#4c489c"/><stop offset=".6" stop-color="#5a52b5"/></linearGradient><linearGradient id="Unbenannter_Verlauf_83" x1="11.9999" y1="20.453" x2="37.1963" y2="5.9058" gradientUnits="userSpaceOnUse"><stop offset=".2" stop-color="#5a52b5"/><stop offset="1" stop-color="#7165e0"/></linearGradient></defs><g id="Ebene_2"><rect x=".0001" y="-.005" width="64" height="64" style="fill:#0f172a;"/></g><g id="Ebene_1"><path d="M52,49.5469c-3.3135,0-6-2.6865-6-6v-23.0938c0-3.3135,2.6865-6,6-6s6,2.6865,6,6v23.0938c0,3.3135-2.6865,6-6,6Z" style="fill:url(#Unbenannter_Verlauf_103);"/><path d="M46.4019,39.8506l-17.2187,9.9411c-2.6153,1.5099-3.8931,4.7196-2.761,7.5192.9759,2.4136,3.2431,3.7839,5.5836,3.7839,1.0176,0,2.0498-.2598,2.9941-.8047l20-11.5469-4.5-7.7945c-.8284-1.4349-2.6632-1.9265-4.0981-1.0981Z" style="fill:url(#Unbenannter_Verlauf_94);"/><path d="M15,38.3506c-2.9262-1.6885-6.6775-.6338-8.2878,2.3604-1.5552,2.8918-.341,6.5145,2.5026,8.1562l19.7852,11.4228,4.5-7.7945c.8284-1.4349.3368-3.2696-1.0981-4.0981l-17.4019-10.0469Z" style="fill:url(#Unbenannter_Verlauf_87);"/><path d="M6,43.5469v-22.8419c0-3.2852,2.5313-6.1502,5.815-6.249,3.3979-.1023,6.185,2.6223,6.185,5.9972v20.0938c0,1.6569-1.3431,3-3,3H6Z" style="fill:url(#Unbenannter_Verlauf_86);"/><path d="M9,15.2568L29,3.7095c3.0929-1.7848,7.1145-.5038,8.5442,2.8979,1.182,2.8122-.0759,6.0696-2.7178,7.5949l-17.2283,9.9471c-1.4349.8285-3.2697.3368-4.0981-1.0981l-4.5-7.7944Z" style="fill:url(#Unbenannter_Verlauf_83);"/><circle cx="31.968" cy="8.8922" r="6" style="fill:#7165e0;"/></g></svg>