<?xml version="1.0" encoding="UTF-8"?><svg id="Ebene_2" xmlns="http://www.w3.org/2000/svg" viewBox="0 0 16 16"><path d="M6.1485,6.5657c0,.366-.2064.6723-.4998.8466v5.1248c0,.2764-.2236.5-.5.5s-.5-.2236-.5-.5v-5.1245c-.2936-.1742-.5002-.4807-.5002-.8469s.2066-.6727.5002-.8469v-2.256c0-.2764.2236-.5.5-.5s.5.2236.5.5v2.2562c.2934.1743.4998.4806.4998.8466ZM8.4998,9.5416V3.4629c0-.2764-.2236-.5-.5-.5s-.5.2236-.5.5v5.9979c-.3286.1639-.5599.495-.5599.8871s.2313.7233.5599.8871v1.3021c0,.2764.2236.5.5.5s.5-.2236.5-.5v-1.3828c.2594-.1807.4401-.4663.4401-.8064s-.1807-.6257-.4401-.8063ZM11.8515,8.4271c0-.3662-.2066-.6727-.5002-.8469V3.4629c0-.2764-.2236-.5-.5-.5s-.5.2236-.5.5v4.1176c-.2934.1743-.4998.4806-.4998.8466s.2064.6723.4998.8466v3.2634c0,.2764.2236.5.5.5s.5-.2236.5-.5v-3.2631c.2936-.1742.5002-.4807.5002-.8469Z"/></svg>