<?xml version="1.0" encoding="UTF-8"?><svg id="Ebene_2" xmlns="http://www.w3.org/2000/svg" viewBox="0 0 16 16"><path d="M15.1238,8c0,.2764-.2236.5-.5.5h-3.2241l1.1104,1.1104c.1953.1953.1953.5117,0,.707-.0977.0977-.2256.1465-.3535.1465s-.2559-.0488-.3535-.1465l-1.9633-1.9633c-.0464-.0463-.0832-.1017-.1086-.1632-.0505-.1222-.0505-.2596,0-.3818.0255-.0615.0623-.1169.1086-.1632l1.9633-1.9633c.1953-.1953.5117-.1953.707,0s.1953.5117,0,.707l-1.1104,1.1104h3.2241c.2764,0,.5.2236.5.5ZM6.2686,7.8076c-.0254-.061-.0623-.1158-.1083-.1617l-1.9637-1.9633c-.1953-.1953-.5117-.1953-.707,0s-.1953.5117,0,.707l1.1107,1.1104H1.3762c-.2764,0-.5.2236-.5.5s.2236.5.5.5h3.224l-1.1107,1.1104c-.1953.1953-.1953.5117,0,.707.0977.0977.2256.1465.3535.1465s.2559-.0488.3535-.1465l1.9637-1.9633c.046-.0459.0829-.1007.1083-.1617.0252-.0604.0388-.1256.0388-.1924s-.0136-.1321-.0388-.1924ZM7,14.5V1.5c0-.276.224-.5.5-.5h1c.276,0,.5.224.5.5v13c0,.276-.224.5-.5.5h-1c-.276,0-.5-.224-.5-.5Z"/></svg>